<?xml version="1.0" encoding="iso-8859-1"?>
<!-- Uploaded to: SVG Repo, www.svgrepo.com, Generator: SVG Repo Mixer Tools -->
<svg fill="#000000" height="800px" width="800px" version="1.1" id="Layer_1" xmlns="http://www.w3.org/2000/svg" xmlns:xlink="http://www.w3.org/1999/xlink" 
	 viewBox="0 0 512 512" xml:space="preserve">
<g>
	<g>
		<g>
			<path d="M445.18,0h-36.775c-4.472,0-8.095,3.623-8.095,8.095s3.623,8.095,8.095,8.095h36.775c27.918,0,50.63,22.712,50.63,50.63
				v292.016c0,27.917-22.712,50.629-50.63,50.629H66.819c-27.917,0-50.629-22.712-50.629-50.629V66.82
				c0-27.918,22.712-50.63,50.629-50.63h313.522c4.472,0,8.095-3.623,8.095-8.095S384.813,0,380.341,0H66.819
				C29.974,0,0,29.975,0,66.82v292.016v86.345C0,482.026,29.974,512,66.819,512H445.18c36.845,0,66.82-29.974,66.82-66.819v-86.345
				V66.82C512,29.975,482.025,0,445.18,0z M495.81,445.181c0,27.917-22.712,50.629-50.63,50.629H66.819
				c-27.917,0-50.629-22.712-50.629-50.629v-42.813c12.263,14.243,30.405,23.286,50.629,23.286H445.18
				c20.226,0,38.367-9.045,50.63-23.288V445.181z"/>
			<path d="M434.936,439.831H77.745c-10.136,0-18.382,8.247-18.382,18.382v6c0,10.136,8.247,18.382,18.382,18.382h55.43
				c4.472,0,8.095-3.623,8.095-8.095s-3.623-8.095-8.095-8.095h-55.43c-1.209,0-2.192-0.983-2.192-2.192v-6
				c0-1.209,0.983-2.192,2.192-2.192h357.191c1.209,0,2.192,0.983,2.192,2.192v6c0,1.209-0.983,2.192-2.192,2.192H158.695
				c-4.472,0-8.095,3.623-8.095,8.095s3.623,8.095,8.095,8.095h276.241c10.136,0,18.382-8.247,18.382-18.382v-6
				C453.318,448.078,445.071,439.831,434.936,439.831z"/>
			<path d="M279.31,155.368c-0.923-2.509-3.028-4.402-5.621-5.055c-5.662-1.425-11.499-2.147-17.347-2.147
				c-36.433,0-66.072,27.468-66.072,61.23c0,33.761,29.639,61.229,66.072,61.229c36.432,0,66.071-27.468,66.071-61.229
				c0-9.172-2.145-18.006-6.376-26.258c-1.237-2.413-3.602-4.047-6.298-4.351c-2.684-0.298-5.364,0.764-7.107,2.842
				c-2.936,3.5-7.232,5.508-11.787,5.508c-8.479,0-15.379-6.899-15.379-15.379c0-3.21,0.983-6.286,2.843-8.898
				C279.859,160.682,280.235,157.878,279.31,155.368z M290.844,203.328c5.03,0,9.905-1.19,14.273-3.405
				c0.736,3.089,1.105,6.256,1.105,9.475c0,24.835-22.375,45.039-49.881,45.039c-27.506,0-49.882-20.205-49.882-45.039
				s22.377-45.04,49.882-45.04c1.26,0,2.519,0.043,3.774,0.13c-0.557,2.362-0.841,4.798-0.841,7.271
				C259.275,189.166,273.437,203.328,290.844,203.328z"/>
		</g>
	</g>
</g>
</svg>